<?xml version="1.0" encoding="UTF-8" standalone="no"?>
<svg xmlns="http://www.w3.org/2000/svg" version="1.2" baseProfile="tiny" viewBox="0.00 0.00 607.00 93.00">
<g fill="#837f84">
<path d="
  M 43.54 27.19
  C 37.99 32.89 37.68 43.76 42.76 49.99
  Q 49.09 57.77 59.46 55.98
  C 64.92 55.04 68.02 51.90 69.13 46.42
  Q 69.17 46.22 69.38 46.28
  L 69.63 46.35
  Q 69.75 46.39 69.73 46.51
  L 67.91 55.92
  A 1.47 1.46 85.8 0 1 66.97 57.02
  C 59.16 59.77 49.81 60.23 43.03 54.92
  Q 33.41 47.38 35.39 35.61
  C 36.56 28.66 42.42 22.75 48.88 20.53
  Q 57.21 17.66 66.84 20.52
  A 0.80 0.79 -82.0 0 1 67.40 21.27
  L 67.50 29.23
  Q 67.52 30.43 67.03 29.33
  C 66.06 27.12 65.24 23.36 62.64 22.66
  Q 50.99 19.53 43.54 27.19
  Z"
/>
<path d="
  M 561.0119 59.9077
  A 19.63 19.21 96.4 0 1 544.1097 38.2587
  A 19.63 19.21 96.4 0 1 565.3881 20.8923
  A 19.63 19.21 96.4 0 1 582.2903 42.5413
  A 19.63 19.21 96.4 0 1 561.0119 59.9077
  Z
  M 566.2452 57.1910
  A 16.98 15.30 79.6 0 0 578.2286 37.7281
  A 16.98 15.30 79.6 0 0 560.1148 23.7890
  A 16.98 15.30 79.6 0 0 548.1314 43.2519
  A 16.98 15.30 79.6 0 0 566.2452 57.1910
  Z"
/>
<path d="
  M 401.93 24.31
  A 0.43 0.43 0.0 0 1 401.71 24.88
  L 401.61 24.92
  A 7.86 0.97 -23.9 0 1 394.03 27.22
  L 393.93 27.00
  A 7.86 0.97 -23.9 0 1 400.72 22.93
  L 400.83 22.89
  A 0.43 0.43 0.0 0 1 401.39 23.10
  L 401.93 24.31
  Z"
/>
<path d="
  M 251.71 35.65
  Q 249.73 33.33 249.31 29.88
  A 2.05 2.05 0.0 0 1 250.62 27.72
  Q 254.97 26.08 257.12 30.41
  Q 257.35 30.87 257.78 31.16
  Q 257.98 31.30 258.22 31.28
  Q 258.74 31.24 258.76 30.72
  Q 258.87 27.00 261.67 23.90
  A 1.21 1.21 0.0 0 1 263.27 23.72
  Q 267.25 26.52 266.05 31.81
  Q 265.80 32.90 266.75 32.32
  C 267.84 31.67 268.69 30.60 269.97 30.28
  Q 272.45 29.68 275.27 30.61
  Q 275.77 30.77 275.73 31.30
  C 275.53 33.85 274.10 35.67 272.12 37.16
  A 0.58 0.58 0.0 0 0 272.32 38.19
  Q 274.97 38.90 277.02 40.96
  Q 277.73 41.68 277.26 42.58
  C 276.25 44.52 274.26 45.74 272.10 45.14
  Q 271.49 44.97 270.84 44.98
  Q 270.17 44.99 270.37 45.62
  Q 270.60 46.36 270.99 47.03
  C 271.97 48.70 272.27 50.85 271.92 52.70
  A 1.17 1.16 -73.8 0 1 270.35 53.57
  Q 267.56 52.49 265.49 50.80
  A 0.37 0.37 0.0 0 0 264.90 51.02
  Q 264.20 54.55 261.73 56.76
  A 1.03 1.03 0.0 0 1 260.69 56.96
  Q 256.38 55.41 256.95 50.94
  Q 257.23 48.71 255.33 49.91
  Q 253.12 51.31 250.44 51.86
  A 1.36 1.36 0.0 0 1 249.09 51.36
  Q 247.99 49.97 248.19 48.20
  C 248.38 46.41 250.48 45.52 251.77 44.52
  A 0.45 0.45 0.0 0 0 251.69 43.76
  C 249.64 42.76 244.93 41.44 246.17 38.14
  C 247.28 35.21 249.19 36.36 251.42 36.29
  Q 252.23 36.27 251.71 35.65
  Z
  M 264.94 34.44
  Q 264.04 34.55 264.26 33.67
  Q 265.26 29.56 263.85 26.42
  A 1.16 1.16 0.0 0 0 261.74 26.41
  Q 260.04 30.11 260.31 34.19
  Q 260.36 34.98 261.14 34.88
  Q 264.76 34.43 266.70 37.79
  Q 267.08 38.46 267.48 37.80
  C 267.90 37.09 268.61 36.57 269.38 36.31
  Q 272.11 35.41 273.81 32.96
  A 0.70 0.69 -68.6 0 0 273.34 31.88
  C 271.34 31.60 269.30 32.23 267.67 33.35
  Q 266.36 34.26 264.94 34.44
  Z
  M 255.30 37.60
  L 258.73 35.15
  A 0.27 0.27 0.0 0 0 258.80 34.77
  L 258.50 34.36
  A 8.30 2.06 54.5 0 0 252.00 28.80
  L 251.48 29.17
  A 8.30 2.06 54.5 0 0 254.63 37.12
  L 254.92 37.54
  A 0.27 0.27 0.0 0 0 255.30 37.60
  Z
  M 261.14 41.28
  Q 260.41 42.29 260.30 41.05
  C 260.19 39.79 261.46 38.75 262.70 38.92
  Q 265.02 39.22 265.39 41.49
  Q 265.48 42.06 266.03 42.22
  Q 269.77 43.32 272.44 43.13
  Q 277.81 42.76 272.94 40.36
  Q 271.24 39.53 267.01 39.85
  Q 266.47 39.90 266.26 39.41
  C 263.71 33.61 255.44 36.56 258.00 42.07
  C 259.22 44.68 261.93 44.52 263.72 42.51
  Q 264.04 42.15 263.91 41.69
  Q 263.68 40.91 262.94 40.41
  Q 262.49 40.11 262.03 40.41
  Q 261.52 40.75 261.14 41.28
  Z
  M 248.73 40.04
  Q 251.64 42.19 254.51 42.33
  Q 255.77 42.39 255.56 41.15
  L 255.36 39.99
  A 1.45 1.44 86.6 0 0 254.00 38.78
  Q 251.99 38.69 250.15 38.10
  Q 249.50 37.89 248.85 38.19
  Q 248.16 38.50 248.31 39.38
  A 1.05 1.00 13.9 0 0 248.73 40.04
  Z
  M 265.20 48.45
  A 0.98 0.98 0.0 0 0 265.61 49.04
  L 269.15 51.40
  A 0.98 0.98 0.0 0 0 270.59 50.20
  L 268.10 44.38
  A 0.98 0.98 0.0 0 0 267.21 43.79
  L 265.35 43.76
  A 0.98 0.98 0.0 0 0 264.38 44.96
  L 265.20 48.45
  Z
  M 257.62 45.20
  L 256.57 43.79
  A 0.53 0.53 0.0 0 0 255.83 43.68
  L 254.70 44.52
  A 5.50 1.31 -36.6 0 0 251.06 48.85
  L 251.18 49.01
  A 5.50 1.31 -36.6 0 0 256.38 46.78
  L 257.51 45.94
  A 0.53 0.53 0.0 0 0 257.62 45.20
  Z
  M 262.64 46.12
  L 260.00 45.85
  A 1.10 1.10 0.0 0 0 258.79 46.83
  L 258.68 47.86
  A 6.20 2.29 -84.1 0 0 260.32 54.26
  L 260.60 54.29
  A 6.20 2.29 -84.1 0 0 263.52 48.36
  L 263.62 47.33
  A 1.10 1.10 0.0 0 0 262.64 46.12
  Z"
/>
<path d="
  M 102.84 57.76
  Q 104.59 57.05 103.99 55.26
  L 101.56 48.00
  A 1.64 1.64 0.0 0 0 99.99 46.88
  L 92.92 46.97
  A 1.27 1.26 9.6 0 0 91.74 47.80
  L 89.00 55.21
  Q 88.34 56.97 90.11 57.63
  Q 90.92 57.93 91.48 58.54
  Q 92.04 59.15 91.22 59.01
  Q 87.32 58.36 83.55 58.74
  Q 82.63 58.83 83.41 58.33
  Q 83.73 58.12 84.10 58.06
  C 85.68 57.79 86.58 55.75 87.32 53.89
  Q 92.16 41.80 95.20 32.48
  Q 97.14 26.53 99.12 32.47
  Q 102.86 43.67 107.11 55.17
  Q 108.02 57.63 110.94 58.21
  Q 111.06 58.23 111.04 58.35
  L 110.99 58.62
  Q 110.92 59.00 110.54 58.95
  Q 106.26 58.42 101.79 58.89
  Q 100.76 59.00 101.62 58.42
  Q 102.19 58.03 102.84 57.76
  Z
  M 93.21 44.06
  A 0.78 0.78 0.0 0 0 93.93 45.11
  L 99.20 45.18
  A 0.78 0.78 0.0 0 0 99.95 44.15
  L 97.41 36.64
  A 0.78 0.78 0.0 0 0 95.94 36.62
  L 93.21 44.06
  Z"
/>
<path d="
  M 127.66 39.02
  C 127.12 42.28 127.38 45.67 127.11 48.99
  Q 126.87 51.77 126.57 54.60
  Q 126.34 56.81 128.55 57.93
  Q 131.19 59.27 128.24 58.97
  Q 125.51 58.69 122.41 58.95
  Q 121.13 59.06 122.24 58.40
  C 124.87 56.82 124.66 55.12 124.91 52.00
  Q 125.91 39.71 126.14 30.58
  A 0.82 0.82 0.0 0 1 127.15 29.80
  Q 127.81 29.95 128.09 30.57
  Q 132.92 41.24 139.71 52.12
  A 0.69 0.68 43.4 0 0 140.89 52.09
  Q 146.50 41.92 151.90 30.82
  Q 152.27 30.05 153.12 29.93
  A 0.81 0.81 0.0 0 1 154.04 30.67
  Q 154.96 42.42 156.37 55.58
  Q 156.47 56.47 157.13 57.07
  Q 158.18 58.01 159.69 58.40
  Q 159.75 58.41 159.74 58.47
  L 159.69 58.77
  Q 159.65 58.97 159.45 58.97
  L 149.59 59.05
  A 0.29 0.29 0.0 0 1 149.30 58.77
  L 149.28 58.51
  Q 149.27 58.43 149.35 58.42
  Q 151.60 58.11 152.77 56.75
  A 1.41 1.38 -27.1 0 0 153.11 55.74
  L 151.74 38.00
  A 0.64 0.64 0.0 0 0 151.28 37.44
  Q 150.71 37.28 150.52 37.64
  Q 144.67 48.74 140.13 58.47
  A 0.27 0.27 0.0 0 1 139.65 58.49
  L 129.06 38.79
  Q 128.02 36.86 127.66 39.02
  Z"
/>
<path d="
  M 217.1119 59.3999
  A 14.87 14.45 89.8 0 1 202.6101 44.5804
  A 14.87 14.45 89.8 0 1 217.0081 29.6601
  A 14.87 14.45 89.8 0 1 231.5099 44.4796
  A 14.87 14.45 89.8 0 1 217.1119 59.3999
  Z
  M 219.1244 57.1289
  A 12.80 11.37 80.9 0 0 228.3269 42.6917
  A 12.80 11.37 80.9 0 0 215.0756 31.8511
  A 12.80 11.37 80.9 0 0 205.8731 46.2883
  A 12.80 11.37 80.9 0 0 219.1244 57.1289
  Z"
/>
<path d="
  M 178.65 47.75
  Q 178.87 51.20 178.72 55.03
  Q 178.67 56.48 179.70 57.36
  Q 180.89 58.37 182.62 58.34
  A 0.07 0.06 -0.0 0 1 182.69 58.40
  L 182.68 58.69
  Q 182.67 59.17 182.19 59.14
  C 178.79 58.94 175.63 58.66 172.14 59.15
  Q 172.07 59.16 172.02 59.10
  L 171.79 58.82
  Q 171.68 58.68 171.85 58.62
  C 173.55 58.11 175.65 57.64 175.64 55.43
  Q 175.62 44.66 175.70 33.11
  Q 175.70 32.60 175.35 32.22
  Q 174.20 31.02 171.82 30.59
  Q 171.75 30.58 171.75 30.51
  L 171.77 30.25
  A 0.36 0.35 -85.4 0 1 172.16 29.91
  C 179.09 30.60 190.10 27.45 191.47 37.98
  Q 191.79 40.45 190.58 42.42
  Q 186.86 48.42 179.55 46.96
  Q 178.58 46.77 178.65 47.75
  Z
  M 178.81 33.16
  L 178.73 44.26
  A 1.05 1.05 0.0 0 0 179.77 45.31
  L 182.03 45.33
  A 6.51 6.38 0.4 0 0 188.59 38.99
  L 188.59 38.55
  A 6.51 6.38 0.4 0 0 182.13 32.13
  L 179.87 32.11
  A 1.05 1.05 0.0 0 0 178.81 33.16
  Z"
/>
<path d="
  M 309.00 44.06
  C 311.90 45.15 314.21 46.03 315.10 49.37
  C 316.71 55.38 311.37 59.10 305.83 59.08
  Q 300.50 59.06 295.08 59.04
  Q 294.82 59.04 294.80 58.79
  L 294.77 58.53
  Q 294.76 58.46 294.83 58.46
  Q 296.73 58.26 297.79 56.93
  Q 298.09 56.55 298.09 56.06
  L 298.16 33.17
  Q 298.17 32.72 297.85 32.41
  Q 296.50 31.09 293.91 30.86
  A 0.14 0.14 0.0 0 1 293.79 30.70
  L 293.83 30.43
  Q 293.88 30.06 294.25 30.08
  Q 300.15 30.34 305.09 30.29
  C 310.71 30.25 315.60 34.35 312.52 40.26
  C 311.76 41.71 310.30 42.47 308.94 43.24
  Q 308.10 43.72 309.00 44.06
  Z
  M 301.17 32.94
  L 301.09 42.24
  A 1.02 1.02 0.0 0 0 302.10 43.27
  L 302.57 43.27
  A 8.15 5.52 0.5 0 0 310.77 37.82
  L 310.77 37.52
  A 8.15 5.52 0.5 0 0 302.67 31.93
  L 302.20 31.93
  A 1.02 1.02 0.0 0 0 301.17 32.94
  Z
  M 301.06 46.70
  L 301.04 55.86
  A 1.72 1.72 0.0 0 0 302.76 57.58
  L 303.58 57.58
  A 8.90 6.03 0.1 0 0 312.49 51.57
  L 312.49 51.03
  A 8.90 6.03 0.1 0 0 303.60 44.98
  L 302.78 44.98
  A 1.72 1.72 0.0 0 0 301.06 46.70
  Z"
/>
<path d="
  M 335.64 43.46
  C 338.21 43.64 341.66 44.18 343.45 41.80
  Q 344.13 40.90 344.14 42.03
  L 344.22 48.48
  Q 344.22 48.58 344.12 48.58
  L 343.84 48.59
  Q 343.56 48.60 343.54 48.32
  C 343.16 44.08 338.31 45.27 335.55 45.26
  A 0.69 0.68 -89.6 0 0 334.86 45.95
  L 334.80 55.80
  A 1.61 1.60 2.1 0 0 336.30 57.41
  Q 340.11 57.64 343.18 57.03
  Q 345.04 56.66 346.22 54.21
  Q 346.83 52.94 346.90 54.35
  Q 346.98 56.23 346.47 58.33
  Q 346.25 59.24 345.31 59.21
  Q 336.52 58.88 328.15 59.19
  Q 328.13 59.19 328.13 59.17
  L 328.12 58.91
  Q 328.12 58.78 328.25 58.77
  C 329.67 58.63 331.76 58.01 331.75 56.28
  Q 331.71 44.30 331.71 33.17
  A 1.96 1.96 0.0 0 0 330.11 31.24
  Q 329.31 31.10 328.61 30.80
  Q 327.36 30.28 328.71 30.29
  L 344.79 30.43
  A 0.65 0.64 -1.4 0 1 345.44 31.04
  L 345.75 35.97
  A 0.09 0.01 80.8 0 1 345.75 36.05
  L 345.50 36.06
  Q 345.14 36.08 345.12 35.72
  C 344.97 33.79 343.97 32.19 341.85 32.22
  Q 338.74 32.26 335.80 32.13
  A 0.86 0.86 0.0 0 0 334.91 32.98
  L 334.79 42.53
  Q 334.77 43.40 335.64 43.46
  Z"
/>
<path d="
  M 424.25 32.50
  C 417.00 29.38 412.45 38.87 419.55 42.36
  C 424.68 44.87 430.34 47.46 428.40 54.58
  C 426.87 60.19 419.55 60.27 414.94 58.70
  A 0.95 0.92 -86.9 0 1 414.33 58.00
  Q 413.79 55.22 413.95 52.51
  Q 414.00 51.52 414.37 52.44
  L 415.60 55.49
  Q 415.85 56.09 416.38 56.46
  C 424.04 61.74 430.89 51.54 422.73 47.43
  C 418.28 45.19 413.27 43.18 413.40 37.24
  C 413.55 30.29 421.51 29.18 426.58 30.65
  Q 427.19 30.83 427.22 31.47
  L 427.49 37.10
  Q 427.51 37.36 427.25 37.40
  L 426.96 37.44
  Q 426.90 37.45 426.89 37.39
  Q 426.58 35.98 426.10 34.57
  Q 425.59 33.07 424.25 32.50
  Z"
/>
<path d="
  M 444.12 35.56
  C 441.36 43.44 455.91 43.11 456.53 51.20
  C 457.17 59.60 448.98 60.52 442.97 58.95
  A 1.31 1.28 2.3 0 1 442.02 57.94
  Q 441.52 55.25 441.65 52.47
  Q 441.69 51.59 442.04 52.40
  C 442.77 54.13 443.35 56.58 445.30 57.27
  Q 450.82 59.23 453.28 55.00
  Q 455.62 50.96 451.46 48.25
  Q 448.03 46.02 444.49 43.99
  C 439.72 41.25 439.99 34.12 444.66 31.42
  Q 448.95 28.93 454.42 30.76
  A 0.96 0.94 7.1 0 1 455.07 31.58
  Q 455.28 33.99 455.05 36.62
  Q 454.96 37.67 454.59 36.69
  C 453.81 34.59 453.22 32.48 450.62 32.07
  Q 445.63 31.28 444.12 35.56
  Z"
/>
<path d="
  M 362.69 57.55
  A 1.49 1.47 70.2 0 0 363.21 56.42
  Q 363.27 45.44 363.25 33.56
  C 363.24 31.89 361.59 31.08 360.13 31.02
  A 0.35 0.35 0.0 0 1 359.80 30.65
  L 359.82 30.37
  A 0.11 0.10 -85.6 0 1 359.94 30.26
  Q 365.00 30.71 369.75 30.21
  Q 369.97 30.18 370.06 30.39
  L 370.19 30.72
  Q 370.23 30.84 370.10 30.85
  Q 367.91 31.13 366.72 32.25
  A 1.46 1.45 -22.0 0 0 366.27 33.30
  L 366.25 56.00
  A 1.36 1.36 0.0 0 0 367.49 57.37
  C 370.19 57.60 375.00 58.00 376.30 54.84
  Q 377.22 52.62 377.30 55.02
  Q 377.36 57.03 376.98 58.72
  A 0.65 0.65 0.0 0 1 376.36 59.23
  Q 370.41 59.29 363.75 59.07
  Q 361.76 59.00 359.93 59.40
  Q 359.70 59.45 359.66 59.21
  L 359.66 59.20
  Q 359.65 59.13 359.72 59.10
  Q 361.53 58.54 362.69 57.55
  Z"
/>
<path d="
  M 392.45 31.59
  L 390.36 30.92
  Q 389.94 30.78 390.23 30.44
  C 390.25 30.42 399.43 30.32 400.45 30.25
  Q 400.62 30.23 400.65 30.40
  L 400.70 30.68
  Q 400.76 30.95 400.48 30.99
  Q 398.65 31.24 397.26 32.17
  A 1.35 1.35 0.0 0 0 396.66 33.29
  L 396.69 56.42
  A 1.72 1.72 0.0 0 0 397.74 57.99
  Q 398.92 58.48 400.25 58.80
  Q 400.56 58.87 400.70 59.15
  Q 400.91 59.54 400.47 59.49
  Q 395.53 58.94 390.48 59.46
  Q 389.28 59.58 390.31 58.96
  Q 391.06 58.51 391.93 58.29
  A 2.35 2.34 -6.8 0 0 393.71 56.03
  L 393.74 33.38
  A 1.89 1.89 0.0 0 0 392.45 31.59
  Z"
/>
<path d="
  M 472.45 57.87
  A 1.49 1.48 -14.1 0 0 473.24 56.56
  Q 473.23 45.40 473.28 33.70
  C 473.28 32.04 471.40 31.31 469.97 31.17
  Q 469.78 31.15 469.78 30.95
  L 469.79 30.68
  A 0.10 0.10 0.0 0 1 469.89 30.58
  L 479.65 30.58
  Q 480.52 30.58 479.79 31.06
  Q 479.13 31.49 478.34 31.55
  A 2.20 2.19 -2.0 0 0 476.29 33.74
  L 476.25 56.00
  A 2.52 2.51 7.0 0 0 478.17 58.45
  Q 478.97 58.64 479.63 59.04
  Q 480.80 59.73 479.45 59.59
  Q 474.49 59.08 469.60 59.75
  Q 469.31 59.79 469.20 59.52
  Q 469.18 59.48 469.18 59.43
  Q 469.18 59.19 469.41 59.13
  Q 471.02 58.64 472.45 57.87
  Z"
/>
<path d="
  M 511.75 53.58
  A 0.20 0.20 0.0 0 0 512.10 53.56
  Q 517.93 42.22 523.73 30.99
  Q 523.98 30.51 524.69 30.55
  A 0.79 0.78 89.1 0 1 525.41 31.25
  Q 526.53 42.53 527.44 53.25
  Q 527.57 54.75 527.80 56.17
  C 528.18 58.47 530.74 58.55 530.95 59.35
  Q 531.07 59.85 530.56 59.77
  Q 525.83 59.00 521.33 59.79
  Q 521.16 59.82 521.05 59.68
  Q 520.95 59.54 520.99 59.41
  Q 521.05 59.25 521.21 59.20
  Q 522.46 58.81 523.60 58.16
  A 2.11 2.09 -17.1 0 0 524.66 56.18
  L 523.28 38.50
  Q 523.22 37.72 522.51 37.81
  Q 522.32 37.84 521.99 38.47
  Q 517.70 46.62 513.42 54.78
  C 512.74 56.07 512.39 57.50 511.72 58.80
  Q 511.41 59.40 511.08 58.80
  L 500.47 39.18
  Q 500.10 38.50 499.60 39.09
  Q 499.13 39.64 499.09 40.35
  Q 498.63 47.35 498.10 55.10
  Q 497.93 57.65 500.19 58.83
  Q 502.35 59.96 499.93 59.68
  Q 497.01 59.35 494.25 59.72
  Q 492.54 59.95 493.86 58.83
  Q 494.52 58.27 495.39 57.89
  A 0.97 0.95 81.6 0 0 495.96 57.11
  Q 497.42 43.91 497.60 31.06
  A 0.54 0.53 -2.4 0 1 498.08 30.54
  Q 499.23 30.44 499.70 31.49
  Q 504.47 42.26 511.75 53.58
  Z"
/>
</g>
</svg>
